<svg width="25" height="25" viewBox="0 0 25 25" fill="none" xmlns="http://www.w3.org/2000/svg">
<path d="M12.2489 0.765625C5.90706 0.765625 0.765625 5.90706 0.765625 12.2489C0.765625 18.5907 5.90706 23.7321 12.2489 23.7321C18.5907 23.7321 23.7321 18.5907 23.7321 12.2489C23.7321 5.90706 18.5907 0.765625 12.2489 0.765625ZM14.1628 19.8087H10.335V10.6221H14.1628V19.8087ZM12.2489 8.51682C11.7413 8.51682 11.2545 8.31518 10.8956 7.95626C10.5366 7.59734 10.335 7.11054 10.335 6.60295C10.335 6.09536 10.5366 5.60855 10.8956 5.24963C11.2545 4.89071 11.7413 4.68907 12.2489 4.68907C12.7565 4.68907 13.2433 4.89071 13.6022 5.24963C13.9611 5.60855 14.1628 6.09536 14.1628 6.60295C14.1628 7.11054 13.9611 7.59734 13.6022 7.95626C13.2433 8.31518 12.7565 8.51682 12.2489 8.51682Z" fill="#FBD962"/>
</svg>
