<svg width="78" height="58" viewBox="0 0 78 58" fill="none" xmlns="http://www.w3.org/2000/svg">
<path d="M17.7282 23.1303C16.8611 23.1303 16.029 23.262 15.2007 23.3821C15.469 22.4832 15.7451 21.5689 16.1884 20.7475C16.6317 19.5542 17.3238 18.5197 18.0121 17.4775C18.5876 16.35 19.6024 15.5868 20.349 14.622C21.1306 13.6844 22.196 13.0607 23.0398 12.2819C23.868 11.4683 24.9529 11.0615 25.8161 10.488C26.7183 9.97274 27.5037 9.4032 28.3436 9.132L30.4395 8.27188L32.2826 7.50862L30.3967 0L28.0753 0.557914C27.3326 0.743886 26.4266 0.960853 25.3962 1.22044C24.3424 1.41416 23.2187 1.94496 21.9666 2.42926C20.7301 2.97942 19.2991 3.35137 17.9693 4.23474C16.6317 5.07936 15.088 5.7845 13.727 6.91583C12.4089 8.08203 10.8185 9.09325 9.64418 10.5772C8.361 11.9642 7.09337 13.421 6.1096 15.0792C4.97029 16.66 4.1965 18.3957 3.37993 20.1121C2.64112 21.8285 2.0462 23.5836 1.56014 25.2883C0.638586 28.7055 0.226412 31.9523 0.0669869 34.7303C-0.0652196 37.5121 0.0125489 39.8251 0.175863 41.4989C0.234189 42.2892 0.343065 43.0564 0.420834 43.5872L0.518044 44.2381L0.619143 44.2148C1.31074 47.4338 2.90283 50.3919 5.21123 52.747C7.51964 55.102 10.45 56.7578 13.6634 57.5228C16.8768 58.2877 20.2419 58.1306 23.3694 57.0695C26.4969 56.0084 29.259 54.0868 31.3362 51.5269C33.4134 48.9671 34.7208 45.8735 35.1072 42.6042C35.4936 39.3349 34.9432 36.0234 33.5196 33.0527C32.0961 30.0821 29.8575 27.5737 27.063 25.8177C24.2684 24.0618 21.032 23.13 17.7282 23.1303ZM60.5009 23.1303C59.6338 23.1303 58.8017 23.262 57.9734 23.3821C58.2417 22.4832 58.5178 21.5689 58.9611 20.7475C59.4044 19.5542 60.0965 18.5197 60.7848 17.4775C61.3602 16.35 62.3751 15.5868 63.1217 14.622C63.9033 13.6844 64.9687 13.0607 65.8125 12.2819C66.6407 11.4683 67.7256 11.0615 68.5888 10.488C69.4909 9.97274 70.2764 9.4032 71.1163 9.132L73.2122 8.27188L75.0553 7.50862L73.1694 0L70.848 0.557914C70.1053 0.743886 69.1993 0.960853 68.1689 1.22044C67.1151 1.41416 65.9914 1.94496 64.7393 2.42926C63.5067 2.9833 62.0718 3.35137 60.742 4.23861C59.4044 5.08323 57.8607 5.78838 56.4997 6.9197C55.1815 8.0859 53.5912 9.09713 52.4169 10.5772C51.1337 11.9642 49.8661 13.421 48.8823 15.0792C47.743 16.66 46.9692 18.3957 46.1526 20.1121C45.4138 21.8285 44.8189 23.5836 44.3328 25.2883C43.4113 28.7055 42.9991 31.9523 42.8397 34.7303C42.7075 37.5121 42.7852 39.8251 42.9485 41.4989C43.0069 42.2892 43.1157 43.0564 43.1935 43.5872L43.2907 44.2381L43.3918 44.2148C44.0834 47.4338 45.6755 50.3919 47.9839 52.747C50.2923 55.102 53.2227 56.7578 56.4361 57.5228C59.6495 58.2877 63.0146 58.1306 66.1421 57.0695C69.2695 56.0084 72.0317 54.0868 74.1089 51.5269C76.1861 48.9671 77.4935 45.8735 77.8799 42.6042C78.2663 39.3349 77.7159 36.0234 76.2923 33.0527C74.8688 30.0821 72.6302 27.5737 69.8357 25.8177C67.0411 24.0618 63.8047 23.13 60.5009 23.1303Z" fill="#F8F8F8" fill-opacity="0.3"/>
</svg>
